<?xml version="1.0" encoding="UTF-8"?> <svg xmlns="http://www.w3.org/2000/svg" width="175" height="173" viewBox="0 0 175 173" fill="none"> <rect width="175" height="173" fill="white"></rect> <path d="M51.4859 108.12V120H49.9919V106.86H57.4979V108.12H51.4859ZM64.2054 120.18C62.8494 120.18 61.8414 119.634 61.1814 118.542H61.1454V123.96H59.8314V110.64H61.0914L61.1094 112.224H61.1454C61.8054 111.048 62.8254 110.46 64.2054 110.46C65.3814 110.46 66.3054 110.88 66.9774 111.72C67.6494 112.548 67.9854 113.748 67.9854 115.32C67.9854 116.856 67.6374 118.05 66.9414 118.902C66.2574 119.754 65.3454 120.18 64.2054 120.18ZM66.6894 115.32C66.6894 114.096 66.4434 113.16 65.9514 112.512C65.4714 111.864 64.7934 111.54 63.9174 111.54C63.0894 111.54 62.4174 111.864 61.9014 112.512C61.3974 113.16 61.1454 114.054 61.1454 115.194V115.446C61.1454 116.61 61.4034 117.51 61.9194 118.146C62.4354 118.782 63.1014 119.1 63.9174 119.1C64.7694 119.1 65.4414 118.776 65.9334 118.128C66.4374 117.468 66.6894 116.532 66.6894 115.32ZM76.8458 110.64H78.2858L74.6498 120C74.0258 121.608 73.3598 122.7 72.6518 123.276C71.9438 123.852 70.9418 124.14 69.6458 124.14L69.5738 123.042C70.5458 123.042 71.2958 122.832 71.8238 122.412C72.3518 122.004 72.8498 121.2 73.3178 120L69.5198 110.64H70.9958L74.0018 118.398H74.0378L76.8458 110.64ZM83.1552 111.504C82.2312 111.504 81.2352 111.714 80.1672 112.134L79.8432 111.126C80.9712 110.682 82.1112 110.46 83.2632 110.46C84.5472 110.46 85.5552 110.676 86.2872 111.108C87.0192 111.54 87.3852 112.092 87.3852 112.764C87.3852 113.256 87.1812 113.706 86.7732 114.114C86.3772 114.522 85.8012 114.81 85.0452 114.978V115.014C85.8732 115.158 86.4912 115.464 86.8992 115.932C87.3192 116.388 87.5292 116.904 87.5292 117.48C87.5292 118.32 87.1572 118.98 86.4132 119.46C85.6812 119.94 84.6312 120.18 83.2632 120.18C82.0872 120.18 80.9052 119.958 79.7172 119.514L80.0412 118.506C81.1332 118.902 82.1892 119.1 83.2092 119.1C85.1652 119.1 86.1432 118.512 86.1432 117.336C86.1432 116.736 85.8372 116.286 85.2252 115.986C84.6132 115.686 83.6052 115.536 82.2012 115.536H81.4092V114.474H82.2012C84.7332 114.474 85.9992 113.964 85.9992 112.944C85.9992 111.984 85.0512 111.504 83.1552 111.504ZM95.7087 112.548C95.1687 111.876 94.4247 111.54 93.4767 111.54C92.5287 111.54 91.7787 111.876 91.2267 112.548C90.6867 113.208 90.4167 114.132 90.4167 115.32C90.4167 116.508 90.6867 117.438 91.2267 118.11C91.7787 118.77 92.5287 119.1 93.4767 119.1C94.4247 119.1 95.1687 118.77 95.7087 118.11C96.2607 117.438 96.5367 116.508 96.5367 115.32C96.5367 114.132 96.2607 113.208 95.7087 112.548ZM96.6807 118.866C95.8767 119.742 94.8087 120.18 93.4767 120.18C92.1447 120.18 91.0767 119.742 90.2727 118.866C89.4687 117.99 89.0667 116.808 89.0667 115.32C89.0667 113.832 89.4687 112.65 90.2727 111.774C91.0767 110.898 92.1447 110.46 93.4767 110.46C94.8087 110.46 95.8767 110.898 96.6807 111.774C97.4847 112.65 97.8867 113.832 97.8867 115.32C97.8867 116.808 97.4847 117.99 96.6807 118.866ZM101.33 119.064C101.774 119.136 102.26 119.172 102.788 119.172C104.792 119.172 105.794 118.518 105.794 117.21C105.794 116.022 104.732 115.428 102.608 115.428H101.33V119.064ZM101.33 114.528H102.59C103.454 114.528 104.126 114.384 104.606 114.096C105.086 113.808 105.326 113.412 105.326 112.908C105.326 111.948 104.444 111.468 102.68 111.468C102.212 111.468 101.762 111.504 101.33 111.576V114.528ZM107.126 117.3C107.126 119.184 105.662 120.126 102.734 120.126C101.666 120.126 100.742 120.06 99.9623 119.928V110.712C100.814 110.58 101.69 110.514 102.59 110.514C104.042 110.514 105.074 110.73 105.686 111.162C106.31 111.582 106.622 112.122 106.622 112.782C106.622 113.322 106.436 113.778 106.064 114.15C105.692 114.51 105.17 114.762 104.498 114.906V114.924C105.35 115.056 105.998 115.332 106.442 115.752C106.898 116.16 107.126 116.676 107.126 117.3ZM112.699 110.46C114.007 110.46 114.943 110.73 115.507 111.27C116.071 111.81 116.353 112.698 116.353 113.934V117.48C116.353 118.332 116.443 119.172 116.623 120H115.363C115.267 119.532 115.207 118.98 115.183 118.344H115.147C114.823 118.92 114.355 119.37 113.743 119.694C113.131 120.018 112.441 120.18 111.673 120.18C110.809 120.18 110.119 119.94 109.603 119.46C109.087 118.968 108.829 118.308 108.829 117.48C108.829 116.436 109.285 115.608 110.197 114.996C111.109 114.372 112.405 114.06 114.085 114.06H115.039V113.97C115.039 113.058 114.865 112.428 114.517 112.08C114.181 111.72 113.575 111.54 112.699 111.54C111.571 111.54 110.521 111.816 109.549 112.368L109.315 111.306C110.347 110.742 111.475 110.46 112.699 110.46ZM110.125 117.426C110.125 117.966 110.293 118.392 110.629 118.704C110.965 119.004 111.415 119.154 111.979 119.154C112.807 119.154 113.521 118.86 114.121 118.272C114.733 117.672 115.039 116.94 115.039 116.076V115.068H114.085C112.825 115.068 111.847 115.284 111.151 115.716C110.467 116.136 110.125 116.706 110.125 117.426ZM121.282 115.536C120.562 115.38 119.968 115.11 119.5 114.726C119.044 114.33 118.816 113.802 118.816 113.142C118.816 111.39 120.226 110.514 123.046 110.514C124.042 110.514 125.014 110.58 125.962 110.712V120H124.594V115.986H123.352C122.692 115.986 122.23 116.07 121.966 116.238C121.714 116.394 121.426 116.802 121.102 117.462L119.896 120H118.51L119.824 117.354C120.112 116.778 120.358 116.364 120.562 116.112C120.778 115.86 121.018 115.68 121.282 115.572V115.536ZM124.594 114.978V111.648C124.114 111.576 123.616 111.54 123.1 111.54C121.12 111.54 120.13 112.11 120.13 113.25C120.13 114.402 121.186 114.978 123.298 114.978H124.594ZM47.0991 139.86V138.78H52.6071C52.5231 137.748 52.1871 136.956 51.5991 136.404C51.0111 135.84 50.2311 135.558 49.2591 135.558C48.4671 135.558 47.6691 135.768 46.8651 136.188L46.5051 135.09C47.4051 134.67 48.3471 134.46 49.3311 134.46C50.7951 134.46 51.9411 134.892 52.7691 135.756C53.5971 136.608 54.0111 137.796 54.0111 139.32C54.0111 140.796 53.5791 141.978 52.7151 142.866C51.8511 143.742 50.7231 144.18 49.3311 144.18C48.3471 144.18 47.4051 143.97 46.5051 143.55L46.8651 142.488C47.6331 142.896 48.4311 143.1 49.2591 143.1C50.1711 143.1 50.9331 142.812 51.5451 142.236C52.1571 141.648 52.5111 140.856 52.6071 139.86H47.0991ZM57.4553 143.064C57.8993 143.136 58.3853 143.172 58.9133 143.172C60.9173 143.172 61.9193 142.518 61.9193 141.21C61.9193 140.022 60.8573 139.428 58.7333 139.428H57.4553V143.064ZM57.4553 138.528H58.7153C59.5793 138.528 60.2513 138.384 60.7313 138.096C61.2113 137.808 61.4513 137.412 61.4513 136.908C61.4513 135.948 60.5693 135.468 58.8053 135.468C58.3373 135.468 57.8873 135.504 57.4553 135.576V138.528ZM63.2513 141.3C63.2513 143.184 61.7873 144.126 58.8593 144.126C57.7913 144.126 56.8673 144.06 56.0873 143.928V134.712C56.9393 134.58 57.8153 134.514 58.7153 134.514C60.1673 134.514 61.1993 134.73 61.8113 135.162C62.4353 135.582 62.7473 136.122 62.7473 136.782C62.7473 137.322 62.5613 137.778 62.1893 138.15C61.8173 138.51 61.2953 138.762 60.6233 138.906V138.924C61.4753 139.056 62.1233 139.332 62.5673 139.752C63.0233 140.16 63.2513 140.676 63.2513 141.3ZM68.8237 134.46C70.1317 134.46 71.0677 134.73 71.6317 135.27C72.1957 135.81 72.4777 136.698 72.4777 137.934V141.48C72.4777 142.332 72.5677 143.172 72.7477 144H71.4877C71.3917 143.532 71.3317 142.98 71.3077 142.344H71.2717C70.9477 142.92 70.4797 143.37 69.8677 143.694C69.2557 144.018 68.5657 144.18 67.7977 144.18C66.9337 144.18 66.2437 143.94 65.7277 143.46C65.2117 142.968 64.9537 142.308 64.9537 141.48C64.9537 140.436 65.4097 139.608 66.3217 138.996C67.2337 138.372 68.5297 138.06 70.2097 138.06H71.1637V137.97C71.1637 137.058 70.9897 136.428 70.6417 136.08C70.3057 135.72 69.6997 135.54 68.8237 135.54C67.6957 135.54 66.6457 135.816 65.6737 136.368L65.4397 135.306C66.4717 134.742 67.5997 134.46 68.8237 134.46ZM66.2497 141.426C66.2497 141.966 66.4177 142.392 66.7537 142.704C67.0897 143.004 67.5397 143.154 68.1037 143.154C68.9317 143.154 69.6457 142.86 70.2457 142.272C70.8577 141.672 71.1637 140.94 71.1637 140.076V139.068H70.2097C68.9497 139.068 67.9717 139.284 67.2757 139.716C66.5917 140.136 66.2497 140.706 66.2497 141.426ZM76.687 138.6L81.205 134.64H82.933L77.731 139.122L83.077 144H81.367L76.687 139.662H76.669V144H75.265V134.64H76.669V138.6H76.687ZM91.9278 134.64H93.3678L89.7318 144C89.1078 145.608 88.4418 146.7 87.7338 147.276C87.0258 147.852 86.0238 148.14 84.7278 148.14L84.6558 147.042C85.6278 147.042 86.3778 146.832 86.9058 146.412C87.4338 146.004 87.9318 145.2 88.3998 144L84.6018 134.64H86.0778L89.0838 142.398H89.1198L91.9278 134.64ZM98.7593 134.46C100.067 134.46 101.003 134.73 101.567 135.27C102.131 135.81 102.413 136.698 102.413 137.934V141.48C102.413 142.332 102.503 143.172 102.683 144H101.423C101.327 143.532 101.267 142.98 101.243 142.344H101.207C100.883 142.92 100.415 143.37 99.8033 143.694C99.1913 144.018 98.5013 144.18 97.7333 144.18C96.8693 144.18 96.1793 143.94 95.6633 143.46C95.1473 142.968 94.8893 142.308 94.8893 141.48C94.8893 140.436 95.3453 139.608 96.2573 138.996C97.1693 138.372 98.4653 138.06 100.145 138.06H101.099V137.97C101.099 137.058 100.925 136.428 100.577 136.08C100.241 135.72 99.6353 135.54 98.7593 135.54C97.6313 135.54 96.5813 135.816 95.6093 136.368L95.3753 135.306C96.4073 134.742 97.5353 134.46 98.7593 134.46ZM96.1853 141.426C96.1853 141.966 96.3533 142.392 96.6893 142.704C97.0253 143.004 97.4753 143.154 98.0393 143.154C98.8673 143.154 99.5813 142.86 100.181 142.272C100.793 141.672 101.099 140.94 101.099 140.076V139.068H100.145C98.8853 139.068 97.9073 139.284 97.2113 139.716C96.5273 140.136 96.1853 140.706 96.1853 141.426ZM113.121 142.884H114.687V146.16H113.481V144H105.201V134.64H106.515V142.884H111.807V134.64H113.121V142.884ZM118.03 142.164H118.066L123.394 134.64H124.87V144H123.502V136.476H123.484L118.138 144H116.662V134.64H118.03V142.164ZM129.72 139.536C129 139.38 128.406 139.11 127.938 138.726C127.482 138.33 127.254 137.802 127.254 137.142C127.254 135.39 128.664 134.514 131.484 134.514C132.48 134.514 133.452 134.58 134.4 134.712V144H133.032V139.986H131.79C131.13 139.986 130.668 140.07 130.404 140.238C130.152 140.394 129.864 140.802 129.54 141.462L128.334 144H126.948L128.262 141.354C128.55 140.778 128.796 140.364 129 140.112C129.216 139.86 129.456 139.68 129.72 139.572V139.536ZM133.032 138.978V135.648C132.552 135.576 132.054 135.54 131.538 135.54C129.558 135.54 128.568 136.11 128.568 137.25C128.568 138.402 129.624 138.978 131.736 138.978H133.032Z" fill="black"></path> <path fill-rule="evenodd" clip-rule="evenodd" d="M40.6971 46.5986C40.6261 46.1978 40.8902 45.7621 41.2894 45.6217C41.3444 45.6077 41.4008 45.5988 41.4575 45.595L93.4757 37.3562C93.9453 37.2818 94.4375 37.6246 94.509 38.0756L98.739 64.7827L100.084 64.5697L96.673 43.0317C96.602 42.6309 96.8661 42.1952 97.2653 42.0547C97.3203 42.0408 97.3767 42.0319 97.4334 42.0281L103.711 41.0338C107.85 40.3783 110.881 40.5829 113.071 41.8972C115.261 43.2116 116.38 45.5623 116.872 48.6638L118.782 60.7251C119.252 60.6508 119.744 60.9935 119.815 61.4446L119.952 62.3061L120.498 65.7522C120.569 66.2033 120.207 66.6813 119.737 66.7557L118.84 66.8978L119.113 68.6208C119.185 69.0719 118.822 69.55 118.353 69.6244L113.196 70.4412L112.995 70.8042C113.25 73.5292 111.259 76.0467 108.409 76.4981C105.559 76.9495 102.888 75.1703 102.288 72.4999L101.985 72.2168L71.94 76.9755L71.7389 77.3385C71.9938 80.0635 70.0034 82.581 67.1533 83.0324C64.4941 83.4536 61.9866 81.9385 61.174 79.5638L60.1089 79.7325C60.0699 82.2421 58.1533 84.4579 55.4941 84.879C52.644 85.3304 49.9731 83.5512 49.3734 80.8808L49.07 80.5977L45.7067 81.1304C45.2371 81.2047 44.7449 80.862 44.6734 80.4109L44.4005 78.6879L43.5036 78.8299C43.034 78.9043 42.5418 78.5615 42.4703 78.1105L41.9245 74.6644C41.8535 74.2636 42.1176 73.8279 42.5168 73.6875C42.5719 73.6735 42.6282 73.6646 42.6849 73.6608L44.9271 73.3057L40.6971 46.5986ZM92.8517 39.2213L42.6273 47.176L46.7208 73.0216L96.9453 65.0668L92.8517 39.2213ZM50.5045 51.1996C50.0724 51.3224 49.7757 51.7889 49.8605 52.2123L51.9073 65.1351C51.9726 65.5913 52.4687 65.9419 52.9425 65.8668C53.4164 65.7918 53.7798 65.3051 53.701 64.851L51.6542 51.9282C51.5956 51.4268 51.0095 51.0554 50.5045 51.1996ZM58.8292 50.7918C58.7444 50.3684 59.041 49.9019 59.4732 49.7791C59.9782 49.6349 60.5643 50.0064 60.6229 50.5077L62.6696 63.4305C62.7484 63.8846 62.3851 64.3713 61.9112 64.4464C61.4373 64.5214 60.9413 64.1708 60.8759 63.7146L58.8292 50.7918ZM68.4418 48.3586C68.0097 48.4814 67.713 48.9479 67.7978 49.3713L69.8446 62.2941C69.9099 62.7503 70.406 63.1009 70.8798 63.0259C71.3537 62.9508 71.7171 62.4641 71.6383 62.01L69.5915 49.0872C69.5329 48.5859 68.9468 48.2144 68.4418 48.3586ZM76.7665 47.9508C76.6817 47.5274 76.9783 47.0609 77.4105 46.9381C77.9155 46.7939 78.5016 47.1654 78.5602 47.6667L80.607 60.5895C80.6857 61.0436 80.3223 61.5303 79.8485 61.6054C79.3746 61.6804 78.8786 61.3298 78.8132 60.8736L76.7665 47.9508ZM86.3791 45.5176C85.947 45.6404 85.6503 46.1069 85.7351 46.5303L87.7819 59.4531C87.8472 59.9093 88.3433 60.2599 88.8171 60.1849C89.291 60.1098 89.6544 59.6231 89.5756 59.169L87.5288 46.2462C87.4702 45.7449 86.8841 45.3734 86.3791 45.5176ZM103.984 42.7568L98.6032 43.6091L101.878 64.2856L115.331 62.1548C115.26 61.754 115.524 61.3184 115.923 61.1779C115.978 61.164 116.035 61.155 116.091 61.1513L116.988 61.0092L115.078 48.9479C114.626 46.0957 113.718 44.3481 112.098 43.376C110.478 42.4039 107.918 42.1338 103.984 42.7568ZM103.192 44.6485C102.793 44.789 102.529 45.2246 102.6 45.6255L104.237 55.9637C104.309 56.4148 104.801 56.7575 105.271 56.6832L113.343 55.4047C113.812 55.3303 114.174 54.8522 114.103 54.4012L113.011 47.509C112.647 45.2116 110.037 43.5644 106.948 44.0537L103.36 44.6219C103.304 44.6257 103.247 44.6346 103.192 44.6485ZM107.221 45.7767L104.53 46.2029L105.895 54.8181L112.173 53.8237L111.218 47.7931C111.036 46.6444 109.513 45.4137 107.221 45.7767ZM105.239 57.5713C104.776 57.688 104.46 58.1982 104.575 58.6423C104.691 59.0865 105.217 59.3844 105.68 59.2677L109.268 58.6995C109.742 58.6309 110.113 58.1491 110.041 57.6939C109.969 57.2387 109.467 56.895 108.995 56.9765L105.407 57.5447C105.35 57.5485 105.294 57.5574 105.239 57.5713ZM118.158 62.5902L117.261 62.7322C117.333 63.1833 116.97 63.6614 116.501 63.7358L115.688 63.8645L43.8547 75.2418L44.1276 76.9649L51.0503 75.8684C51.8137 75.196 52.7687 74.7131 53.8567 74.5408C54.9446 74.3685 56.0021 74.5326 56.936 74.9362L62.7095 74.0218C63.473 73.3493 64.4279 72.8665 65.5159 72.6942C66.6039 72.5218 67.6613 72.6859 68.5952 73.0896L103.965 67.4875C104.729 66.815 105.684 66.3322 106.772 66.1599C107.86 65.9876 108.917 66.1517 109.851 66.5553L118.567 65.1748L118.158 62.5902ZM54.1296 76.2638C56.1215 75.9483 57.9598 77.2283 58.2628 79.1417C58.5659 81.0551 57.2131 82.8405 55.2212 83.156C53.2293 83.4715 51.391 82.1915 51.0879 80.2781C50.7849 78.3647 52.1376 76.5793 54.1296 76.2638ZM69.9221 77.2951C69.619 75.3816 67.7807 74.1017 65.7888 74.4172C63.7969 74.7327 62.4441 76.518 62.7472 78.4315C63.0502 80.3449 64.8885 81.6248 66.8804 81.3093C68.8723 80.9939 70.2251 79.2085 69.9221 77.2951ZM107.045 67.8829C109.037 67.5674 110.875 68.8474 111.178 70.7608C111.481 72.6742 110.128 74.4596 108.136 74.7751C106.144 75.0906 104.306 73.8106 104.003 71.8972C103.7 69.9838 105.053 68.1984 107.045 67.8829ZM46.6427 78.3328L46.1942 78.4038L46.3307 79.2653L47.4518 79.0878L46.6427 78.3328ZM48.9129 77.9732L49.6135 77.8622C49.5366 78.0498 49.473 78.2491 49.4185 78.4451L48.9129 77.9732ZM61.2728 76.0156L58.9185 76.3885C59.3181 76.8596 59.6279 77.4118 59.836 78.0094L60.9011 77.8407C60.9143 77.208 61.0383 76.5871 61.2728 76.0156ZM70.5778 74.5418L71.2784 74.4309L70.9433 75.0359C70.8309 74.8663 70.7089 74.6965 70.5778 74.5418ZM99.5577 69.9519L73.5486 74.0713L73.0124 75.0393L100.367 70.7068L99.5577 69.9519ZM101.828 69.5923L102.529 69.4813C102.452 69.6689 102.388 69.8682 102.334 70.0642L101.828 69.5923ZM112.534 67.8966L111.834 68.0076C111.965 68.1622 112.087 68.3321 112.199 68.5016L112.534 67.8966ZM114.804 67.537L117.047 67.1819L117.183 68.0434L114.268 68.5051L114.804 67.537ZM53.3301 79.923C53.2178 79.2144 53.733 78.5345 54.4707 78.4176C55.2084 78.3008 55.9084 78.7882 56.0207 79.4968C56.1329 80.2054 55.6177 80.8854 54.88 81.0022C54.1424 81.119 53.4423 80.6316 53.3301 79.923ZM66.1299 76.571C65.3923 76.6878 64.8771 77.3677 64.9893 78.0763C65.1016 78.7849 65.8016 79.2724 66.5393 79.1555C67.277 79.0387 67.7921 78.3588 67.6799 77.6502C67.5677 76.9416 66.8676 76.4542 66.1299 76.571ZM106.245 71.5421C106.133 70.8335 106.648 70.1535 107.386 70.0367C108.123 69.9199 108.823 70.4073 108.936 71.1159C109.048 71.8245 108.533 72.5044 107.795 72.6213C107.057 72.7381 106.357 72.2507 106.245 71.5421Z" fill="black"></path> <path fill-rule="evenodd" clip-rule="evenodd" d="M142.712 59.6427C142.046 55.4391 138.082 52.5615 133.875 53.2278C133.377 53.3068 133.037 53.7718 133.116 54.2676C133.194 54.7634 133.661 55.1007 134.159 55.0217C137.372 54.5129 140.399 56.7137 140.908 59.9284C141.418 63.1431 139.219 66.1725 136.006 66.6813C132.794 67.19 129.767 64.9883 129.258 61.7737C129.179 61.2779 128.712 60.9406 128.214 61.0195L119.403 62.2116C118.904 62.2906 118.564 62.7556 118.643 63.2514C118.721 63.7472 119.188 64.0845 119.687 64.0055L127.649 62.9479C128.693 66.6606 132.387 69.0935 136.29 68.4752C140.497 67.8089 143.378 63.8463 142.712 59.6427Z" fill="black"></path> </svg> 